<?xml version="1.0" encoding="UTF-8"?>
<!DOCTYPE svg PUBLIC "-//W3C//DTD SVG 1.1//EN" "http://www.w3.org/Graphics/SVG/1.1/DTD/svg11.dtd">
<svg xmlns="http://www.w3.org/2000/svg" version="1.1" width="512px" height="512px" style="shape-rendering:geometricPrecision; text-rendering:geometricPrecision; image-rendering:optimizeQuality; fill-rule:evenodd; clip-rule:evenodd" xmlns:xlink="http://www.w3.org/1999/xlink">
<g><path style="opacity:0.997" fill="#4065d6" d="M 232.5,-0.5 C 247.833,-0.5 263.167,-0.5 278.5,-0.5C 368.144,10.3879 435.644,54.7213 481,132.5C 497.695,163.971 507.861,197.304 511.5,232.5C 511.5,247.833 511.5,263.167 511.5,278.5C 500.612,368.144 456.279,435.644 378.5,481C 347.029,497.695 313.696,507.861 278.5,511.5C 263.167,511.5 247.833,511.5 232.5,511.5C 142.856,500.612 75.3562,456.279 30,378.5C 13.3053,347.029 3.1386,313.696 -0.5,278.5C -0.5,263.167 -0.5,247.833 -0.5,232.5C 10.3875,142.857 54.7208,75.3573 132.5,30C 163.971,13.3053 197.304,3.1386 232.5,-0.5 Z"/></g>
<g><path style="opacity:1" fill="#fdfefe" d="M 220.5,182.5 C 235.837,182.333 251.17,182.5 266.5,183C 272.75,183.251 276.583,186.417 278,192.5C 278.167,196.5 278.333,200.5 278.5,204.5C 277.619,217.828 277.452,231.161 278,244.5C 278.667,246.5 279.333,248.5 280,250.5C 282.064,251.591 284.231,251.758 286.5,251C 302.517,234.149 314.351,214.649 322,192.5C 323.167,191.333 324.333,190.167 325.5,189C 334.237,187.86 343.07,187.36 352,187.5C 360.167,187.667 368.333,187.833 376.5,188C 383.333,189.838 385.166,194.005 382,200.5C 379.94,205.62 377.607,210.62 375,215.5C 366,227.5 357,239.5 348,251.5C 344.962,255.207 342.795,259.374 341.5,264C 341.909,266.321 342.743,268.487 344,270.5C 356.065,281.896 367.398,293.896 378,306.5C 379.92,309.339 381.587,312.339 383,315.5C 384.714,322.244 382.214,326.41 375.5,328C 360.167,328.667 344.833,328.667 329.5,328C 326.382,326.941 323.382,325.608 320.5,324C 311.113,314.613 301.779,305.279 292.5,296C 288.14,293.465 284.64,294.299 282,298.5C 279.485,305.98 277.818,313.647 277,321.5C 275.5,324.333 273.333,326.5 270.5,328C 234.512,331.419 205.012,319.252 182,291.5C 159.939,262.707 141.939,231.373 128,197.5C 127.153,194.412 127.653,191.579 129.5,189C 144.833,188.333 160.167,188.333 175.5,189C 178.102,189.883 180.269,191.383 182,193.5C 190.165,215.349 201.998,234.849 217.5,252C 220.025,252.896 222.192,252.396 224,250.5C 227.385,237.047 228.385,223.38 227,209.5C 227.111,199.613 222.278,194.113 212.5,193C 211.978,192.439 211.645,191.772 211.5,191C 213.728,187.27 216.728,184.437 220.5,182.5 Z"/></g>
</svg>
