<?xml version="1.0" standalone="no"?>
<!DOCTYPE svg PUBLIC "-//W3C//DTD SVG 20010904//EN"
 "http://www.w3.org/TR/2001/REC-SVG-20010904/DTD/svg10.dtd">
<svg version="1.0" xmlns="http://www.w3.org/2000/svg"
 width="2560.000000pt" height="509.000000pt" viewBox="0 0 2560.000000 509.000000"
 preserveAspectRatio="xMidYMid meet">

<g transform="translate(0.000000,509.000000) scale(0.100000,-0.100000)"
fill="#000000" stroke="none">
<path d="M16429 4795 c-379 -52 -699 -206 -945 -454 -399 -403 -576 -1036
-488 -1745 84 -681 436 -1168 1027 -1420 233 -99 415 -140 632 -139 160 0 254
12 410 53 515 135 929 497 1075 940 30 91 53 252 47 335 -5 90 -25 129 -74
146 -43 15 -265 19 -326 6 -82 -17 -137 -95 -226 -318 -135 -340 -343 -540
-640 -615 -349 -89 -705 1 -946 241 -103 103 -167 193 -245 349 -123 244 -153
369 -152 626 2 639 148 1067 440 1300 334 264 890 293 1229 62 145 -98 227
-200 303 -375 50 -116 69 -141 123 -169 82 -42 410 -42 465 -1 52 38 64 126
36 261 -57 276 -318 561 -679 740 -186 92 -358 147 -560 177 -122 18 -372 18
-506 0z"/>
<path d="M366 4789 c-65 -9 -119 -36 -124 -61 -2 -9 222 -697 498 -1530 276
-832 545 -1645 598 -1806 l97 -292 349 2 349 3 44 130 c25 72 231 681 458
1355 227 674 483 1431 568 1682 153 448 155 458 138 480 -16 19 -30 22 -107
26 -73 3 -493 -23 -500 -31 -1 -1 -108 -339 -239 -752 -358 -1135 -619 -1915
-677 -2029 -11 -21 -23 -35 -28 -30 -31 31 -210 558 -465 1369 -97 308 -235
738 -307 955 -122 369 -133 397 -168 431 -46 44 -164 84 -290 99 -95 11 -111
11 -194 -1z"/>
<path d="M3865 4784 c-291 -26 -342 -43 -385 -129 -23 -46 -25 -61 -25 -185 0
-115 3 -141 20 -174 37 -73 140 -106 333 -106 137 0 179 11 209 56 16 25 18
57 21 291 3 214 1 263 -10 262 -7 -1 -80 -8 -163 -15z"/>
<path d="M14382 4774 c-145 -12 -265 -24 -267 -26 -2 -2 -10 -644 -19 -1428
-8 -784 -18 -1604 -22 -1823 l-6 -397 301 0 301 0 0 1850 c0 1474 -3 1850 -12
1849 -7 -1 -132 -12 -276 -25z"/>
<path d="M7272 3800 c-179 -23 -313 -75 -490 -193 -75 -49 -151 -96 -169 -104
-69 -28 -112 -11 -220 87 -95 87 -273 163 -460 195 -112 20 -321 20 -396 0
-139 -36 -261 -119 -454 -308 l-141 -139 -4 155 c-5 235 -6 236 -315 236
l-203 1 0 -1315 0 -1315 293 0 294 0 6 763 c4 419 11 815 17 880 13 144 39
249 82 329 41 78 152 196 217 231 93 51 241 69 379 47 207 -34 284 -156 333
-525 8 -60 13 -363 16 -907 l5 -818 253 0 253 0 6 143 c3 78 11 327 16 552 23
912 51 1177 142 1359 80 158 229 217 518 203 189 -10 271 -51 330 -166 81
-162 101 -377 126 -1386 8 -363 18 -670 20 -682 l4 -23 250 0 250 0 0 738 c0
865 -13 1191 -56 1441 -43 247 -262 443 -565 505 -98 20 -247 27 -337 16z"/>
<path d="M24111 3799 c-177 -21 -313 -76 -494 -196 -219 -144 -229 -145 -357
-33 -111 98 -231 157 -410 201 -104 25 -355 37 -445 20 -138 -26 -282 -120
-482 -314 l-141 -138 -4 160 c-3 153 -4 161 -27 185 -37 39 -79 46 -293 46
l-198 0 0 -1315 0 -1315 300 0 300 0 0 738 c0 1031 10 1122 135 1298 121 169
264 235 480 221 205 -14 286 -71 351 -251 61 -168 74 -373 81 -1263 l6 -743
248 0 247 0 6 63 c3 34 12 332 21 662 16 616 25 784 51 987 43 343 132 483
337 531 30 7 120 12 212 12 206 -1 255 -14 330 -88 131 -132 158 -351 185
-1507 6 -250 13 -501 16 -557 l6 -103 254 0 254 0 0 463 c-1 910 -23 1506 -65
1725 -56 292 -346 496 -735 516 -52 2 -128 0 -169 -5z"/>
<path d="M9845 3789 c-215 -27 -362 -93 -510 -229 -55 -51 -115 -99 -133 -108
-49 -24 -61 -6 -71 112 -13 158 -29 166 -323 166 l-198 0 0 -1805 0 -1805 300
0 300 0 2 639 3 639 120 -89 c155 -115 205 -143 328 -184 247 -82 566 -86 802
-11 342 110 609 466 711 950 36 170 44 451 19 628 -38 270 -131 506 -271 689
-58 76 -199 207 -267 247 -223 134 -536 195 -812 161z m284 -465 c333 -110
544 -462 544 -909 0 -327 -118 -606 -334 -785 -130 -108 -269 -156 -429 -147
-176 10 -338 84 -465 211 -166 166 -222 348 -232 751 -10 396 18 493 196 675
211 215 467 288 720 204z"/>
<path d="M12538 3789 c-315 -37 -617 -206 -824 -462 -313 -389 -413 -922 -259
-1383 96 -288 284 -547 512 -702 126 -86 218 -127 353 -159 106 -25 132 -27
325 -28 169 0 227 4 294 19 333 73 593 238 746 475 130 201 174 325 123 352
-36 19 -181 30 -261 19 -123 -17 -214 -70 -360 -208 -190 -179 -292 -232 -466
-240 -117 -5 -185 6 -277 48 -179 81 -357 263 -433 444 -23 54 -26 78 -29 199
l-4 137 659 0 c906 1 1116 11 1215 61 85 43 88 140 14 408 -82 290 -177 453
-390 667 -138 137 -244 216 -376 278 -154 73 -351 99 -562 75z m206 -449 c269
-69 576 -352 576 -532 0 -81 -41 -102 -236 -118 -153 -12 -769 -12 -899 0
-118 12 -154 22 -185 55 -33 35 -26 138 14 218 83 163 294 326 488 377 94 24
147 25 242 0z"/>
<path d="M19585 3789 c-265 -17 -453 -72 -624 -183 -143 -92 -346 -315 -410
-449 -135 -284 -172 -784 -87 -1167 31 -138 72 -241 150 -378 149 -262 287
-370 610 -481 170 -59 287 -81 456 -87 696 -27 1217 443 1326 1196 23 162 15
405 -19 550 -61 258 -165 448 -342 626 -274 277 -625 400 -1060 373z m260
-444 c104 -18 225 -72 302 -134 206 -166 314 -513 283 -911 -33 -440 -184
-663 -530 -782 -87 -30 -106 -33 -215 -33 -109 0 -126 3 -190 29 -244 100
-432 334 -508 633 -19 75 -22 114 -22 268 1 152 4 194 23 268 51 205 126 343
256 473 74 74 107 99 176 133 141 69 259 85 425 56z"/>
<path d="M3440 2415 l0 -1315 300 0 300 0 0 1315 0 1315 -300 0 -300 0 0
-1315z"/>
</g>
</svg>
