<?xml version="1.0" standalone="no"?>
<!DOCTYPE svg PUBLIC "-//W3C//DTD SVG 20010904//EN"
 "http://www.w3.org/TR/2001/REC-SVG-20010904/DTD/svg10.dtd">
<svg version="1.0" xmlns="http://www.w3.org/2000/svg"
 width="1280.000000pt" height="629.000000pt" viewBox="0 0 1280.000000 629.000000"
 preserveAspectRatio="xMidYMid meet">

<g transform="translate(0.000000,629.000000) scale(0.100000,-0.100000)"
fill="#000000" stroke="none">
<path d="M2928 6084 c-429 -674 -606 -1415 -527 -2199 46 -452 214 -953 455
-1355 41 -69 85 -137 98 -153 l22 -27 63 95 c78 118 204 361 270 523 170 416
254 834 254 1272 0 428 -85 872 -243 1265 -64 161 -226 465 -326 614 l-23 33
-43 -68z m146 -416 c190 -388 286 -706 338 -1133 29 -244 11 -741 -34 -938
-12 -48 -13 -38 -19 153 -13 412 -67 686 -211 1085 -51 141 -165 395 -178 395
-12 0 -115 -227 -169 -373 -143 -380 -204 -695 -218 -1115 -3 -107 -10 -188
-14 -180 -34 62 -62 717 -40 930 39 369 119 669 282 1052 66 154 148 316 160
316 4 0 50 -87 103 -192z m-50 -1909 c143 -355 153 -757 28 -1094 -37 -101
-72 -175 -82 -175 -12 0 -77 161 -106 260 -98 338 -81 677 52 999 38 91 52
114 64 106 4 -3 24 -46 44 -96z"/>
<path d="M2032 4289 c-237 -20 -502 -94 -727 -204 -625 -304 -1047 -883 -1150
-1580 -22 -147 -22 -433 0 -580 131 -882 785 -1576 1648 -1750 676 -135 1365
66 1860 544 l77 74 0 709 0 708 -760 0 -760 0 0 -321 0 -321 44 39 c24 21 75
54 112 72 234 114 509 62 688 -131 105 -112 156 -243 156 -396 0 -169 -57
-300 -186 -429 -205 -205 -470 -318 -769 -330 -304 -12 -554 71 -792 262 -332
266 -494 720 -407 1140 61 296 246 573 493 738 152 103 357 178 519 192 37 3
82 8 100 11 l32 5 0 779 0 780 -37 -1 c-21 -1 -84 -6 -141 -10z"/>
<path d="M4010 1170 l0 -1040 205 0 205 0 0 915 0 915 190 0 190 0 0 125 0
125 -395 0 -395 0 0 -1040z"/>
<path d="M5030 2201 c0 -4 -47 -461 -105 -1014 -58 -554 -105 -1018 -105
-1032 l0 -25 200 0 200 0 1 43 c0 23 8 148 17 277 l17 235 94 3 c52 1 98 -1
102 -5 4 -4 15 -111 23 -238 9 -126 19 -249 22 -273 l5 -42 200 0 201 0 -6 37
c-3 21 -51 479 -106 1018 -56 539 -103 990 -106 1003 l-4 22 -325 0 c-179 0
-325 -4 -325 -9z m344 -283 c6 -50 66 -940 66 -980 l0 -28 -86 0 -86 0 7 73
c7 91 65 935 65 959 0 10 6 18 14 18 10 0 17 -15 20 -42z"/>
<path d="M6270 2195 c-63 -20 -114 -66 -147 -133 -28 -57 -28 -58 -31 -284
l-4 -228 206 0 206 0 0 185 c0 172 1 186 20 205 39 39 101 15 116 -45 3 -13 5
-129 3 -257 -4 -213 -6 -236 -24 -268 -27 -45 -74 -58 -212 -59 l-103 -1 0
-110 0 -110 113 -1 c127 0 171 -12 201 -52 20 -27 21 -43 24 -290 4 -295 -1
-327 -49 -347 -27 -11 -33 -11 -57 7 l-27 20 -3 212 -2 211 -205 0 -205 0 0
-234 c0 -202 3 -243 19 -295 26 -82 59 -124 128 -158 l58 -28 270 0 c261 0
272 1 320 23 94 43 136 108 155 239 13 90 13 535 0 604 -22 118 -97 185 -219
196 -82 8 -82 28 0 36 114 10 197 88 219 206 13 68 13 424 0 514 -19 127 -82
212 -182 242 -71 21 -520 21 -588 0z"/>
<path d="M7330 1170 l0 -1040 205 0 205 0 0 915 0 915 70 0 70 0 0 -915 0
-915 205 0 205 0 0 1040 0 1040 -480 0 -480 0 0 -1040z"/>
<path d="M8570 1170 l0 -1040 205 0 205 0 0 354 0 354 168 5 c103 3 182 10
207 18 61 21 127 93 150 164 19 56 20 90 20 500 0 513 -2 524 -83 606 -76 76
-95 79 -514 79 l-358 0 0 -1040z m502 779 c44 -24 48 -56 48 -437 0 -237 -4
-370 -11 -391 -13 -36 -53 -61 -99 -61 l-30 0 0 450 0 450 36 0 c19 0 44 -5
56 -11z"/>
<path d="M9999 2196 c-98 -35 -150 -96 -175 -205 -18 -75 -20 -1551 -3 -1633
15 -68 39 -115 81 -155 65 -63 87 -67 358 -71 301 -4 347 4 421 78 88 88 84
40 84 965 l0 810 -23 56 c-27 66 -71 115 -132 143 -42 19 -65 21 -310 23 -200
2 -274 -1 -301 -11z m336 -261 l25 -24 0 -734 c0 -685 -1 -736 -17 -755 -30
-35 -68 -38 -97 -8 l-26 25 0 740 0 740 26 20 c35 27 59 26 89 -4z"/>
<path d="M11050 1170 l0 -1040 205 0 205 0 0 655 c0 430 3 655 10 655 12 0 -6
100 118 -655 l107 -650 165 -3 165 -2 104 637 c58 351 107 646 109 656 18 70
22 -57 22 -638 l0 -655 205 0 205 0 0 1040 0 1040 -268 0 -268 0 -83 -447
c-45 -247 -106 -575 -134 -730 -28 -156 -54 -279 -58 -275 -5 6 -269 1424
-269 1445 0 4 -121 7 -270 7 l-270 0 0 -1040z"/>
</g>
</svg>
