<?xml version="1.0" standalone="no"?>
<!DOCTYPE svg PUBLIC "-//W3C//DTD SVG 20010904//EN"
 "http://www.w3.org/TR/2001/REC-SVG-20010904/DTD/svg10.dtd">
<svg version="1.0" xmlns="http://www.w3.org/2000/svg"
 width="1772.000000pt" height="1772.000000pt" viewBox="0 0 1772.000000 1772.000000"
 preserveAspectRatio="xMidYMid meet">

<g transform="translate(0.000000,1772.000000) scale(0.100000,-0.100000)"
fill="#000000" stroke="none">
<path d="M0 8865 l0 -8855 8855 0 8855 0 0 8855 0 8855 -8855 0 -8855 0 0
-8855z m3438 6148 c355 -739 650 -1339 654 -1335 4 4 297 608 651 1342 l643
1335 717 3 717 2 0 -2045 0 -2045 -505 0 -505 0 -2 1448 -3 1448 -630 -1223
-630 -1223 -458 2 -458 3 -625 1215 c-344 668 -630 1219 -635 1225 -5 5 -9
-578 -9 -1443 l0 -1452 -500 0 -500 0 0 2045 0 2045 716 -2 715 -3 647 -1342z
m12922 937 l0 -410 -890 0 -890 0 0 -1635 0 -1635 -500 0 -500 0 0 1635 0
1635 -890 0 -890 0 0 410 0 410 2280 0 2280 0 0 -410z m-1795 -10421 c737 -58
1220 -265 1508 -647 135 -180 228 -397 267 -627 11 -64 20 -128 20 -141 l0
-24 -500 0 -500 0 -6 28 c-65 296 -232 470 -536 556 -313 89 -895 99 -1235 21
-220 -50 -369 -124 -497 -244 -141 -134 -220 -297 -263 -539 -23 -129 -26
-835 -4 -977 71 -466 317 -715 806 -815 269 -55 664 -61 985 -14 442 64 667
244 744 597 l6 27 501 0 502 0 -7 -62 c-37 -335 -180 -640 -403 -863 -377
-374 -987 -540 -1928 -522 -369 7 -569 30 -836 97 -392 99 -664 249 -898 496
-258 273 -403 615 -467 1109 -22 165 -25 644 -6 815 43 379 150 706 307 940
305 453 764 694 1495 781 241 29 642 32 945 8z"/>
</g>
</svg>
