<?xml version="1.0" standalone="no"?>
<!DOCTYPE svg PUBLIC "-//W3C//DTD SVG 20010904//EN"
 "http://www.w3.org/TR/2001/REC-SVG-20010904/DTD/svg10.dtd">
<svg version="1.0" xmlns="http://www.w3.org/2000/svg"
 width="250.000000pt" height="154.000000pt" viewBox="0 0 250.000000 154.000000"
 preserveAspectRatio="xMidYMid meet">

<g transform="translate(0.000000,154.000000) scale(0.100000,-0.100000)"
fill="#000000" stroke="none">
<path d="M1627 1142 c-10 -10 -17 -33 -17 -50 l0 -32 143 0 c98 0 147 -4 155
-12 8 -8 12 -61 12 -174 0 -134 -3 -165 -16 -178 -12 -12 -38 -16 -114 -16
-150 0 -150 9 -2 205 l61 80 -117 3 -117 3 -28 -33 c-65 -76 -108 -151 -102
-177 8 -31 89 -137 123 -159 38 -25 278 -30 356 -8 118 35 151 96 151 281 -1
138 -18 194 -76 238 -51 38 -100 47 -255 47 -124 0 -143 -2 -157 -18z"/>
<path d="M397 952 c-9 -10 -17 -33 -17 -50 0 -31 1 -32 45 -32 l45 0 0 -240 0
-240 100 0 100 0 0 240 0 240 113 0 c111 0 137 -7 137 -35 0 -7 -30 -52 -67
-101 -37 -49 -78 -104 -91 -121 l-24 -33 120 0 121 0 61 80 c82 108 84 121 23
200 -84 110 -63 105 -377 108 -256 3 -273 2 -289 -16z"/>
<path d="M1184 788 c-75 -101 -141 -189 -147 -195 -7 -10 16 -13 112 -13 l121
0 136 183 c75 100 141 188 147 195 7 9 -16 12 -112 12 l-121 0 -136 -182z"/>
</g>
</svg>
