<?xml version="1.0" encoding="UTF-8"?>
<!DOCTYPE svg PUBLIC "-//W3C//DTD SVG 1.1//EN" "http://www.w3.org/Graphics/SVG/1.1/DTD/svg11.dtd">
<svg xmlns="http://www.w3.org/2000/svg" version="1.1" width="512px" height="512px" style="shape-rendering:geometricPrecision; text-rendering:geometricPrecision; image-rendering:optimizeQuality; fill-rule:evenodd; clip-rule:evenodd" xmlns:xlink="http://www.w3.org/1999/xlink">
<g><path style="opacity:0.967" fill="#000000" d="M 511.5,249.5 C 511.5,253.5 511.5,257.5 511.5,261.5C 471.904,315.474 421.904,356.974 361.5,386C 280.298,421.961 200.964,418.295 123.5,375C 74.7404,345.413 33.4071,307.579 -0.5,261.5C -0.5,257.5 -0.5,253.5 -0.5,249.5C 39.7783,195.179 90.445,153.346 151.5,124C 232.176,89.0765 310.843,93.0765 387.5,136C 436.283,165.613 477.617,203.447 511.5,249.5 Z M 257.5,136.5 C 307.763,138.476 353.096,154.31 393.5,184C 420.88,205.044 446.047,228.544 469,254.5C 431.071,301.723 383.904,336.89 327.5,360C 270.442,380.682 214.442,378.016 159.5,352C 113.004,328.156 73.8374,295.656 42,254.5C 78.4331,211.381 122.266,178.214 173.5,155C 200.528,143.764 228.528,137.597 257.5,136.5 Z M 251.5,200.5 C 281.536,201.089 300.703,215.755 309,244.5C 312.78,272.775 301.947,293.275 276.5,306C 244.414,315.867 220.581,306.033 205,276.5C 195.133,244.414 204.967,220.581 234.5,205C 240.175,203 245.842,201.5 251.5,200.5 Z"/></g>
<g><path style="opacity:0.969" fill="#000000" d="M 254.5,163.5 C 292.362,165.001 320.195,182.335 338,215.5C 354.923,257.156 347.423,293.656 315.5,325C 276.039,354.245 236.373,354.578 196.5,326C 165.977,297.077 157.144,262.577 170,222.5C 186.254,185.743 214.42,166.076 254.5,163.5 Z M 251.5,200.5 C 245.842,201.5 240.175,203 234.5,205C 204.967,220.581 195.133,244.414 205,276.5C 220.581,306.033 244.414,315.867 276.5,306C 301.947,293.275 312.78,272.775 309,244.5C 300.703,215.755 281.536,201.089 251.5,200.5 Z"/></g>
</svg>
