<?xml version="1.0" standalone="no"?>
<!DOCTYPE svg PUBLIC "-//W3C//DTD SVG 20010904//EN"
 "http://www.w3.org/TR/2001/REC-SVG-20010904/DTD/svg10.dtd">
<svg version="1.0" xmlns="http://www.w3.org/2000/svg"
 width="768.000000pt" height="768.000000pt" viewBox="0 0 768.000000 768.000000"
 preserveAspectRatio="xMidYMid meet">

<g transform="translate(0.000000,768.000000) scale(0.100000,-0.100000)"
fill="#000000" stroke="none">
<path d="M0 3840 l0 -3840 3840 0 3840 0 0 3840 0 3840 -3840 0 -3840 0 0
-3840z m4275 1610 c391 -85 691 -261 953 -560 423 -483 512 -1214 217 -1800
-188 -374 -577 -709 -960 -825 -472 -144 -929 -94 -1341 147 -356 208 -639
567 -759 962 -142 467 -67 976 200 1372 71 105 91 128 200 243 250 261 572
422 970 484 17 3 118 4 225 2 154 -2 216 -7 295 -25z m-183 -3832 c96 -41 153
-146 128 -237 -20 -74 -97 -140 -183 -156 l-37 -7 0 -100 c0 -97 0 -99 -22
-96 -22 3 -23 8 -26 99 l-3 96 -52 12 c-100 22 -167 104 -167 202 0 168 185
263 362 187z"/>
<path d="M3870 5164 c-14 -2 -59 -9 -100 -15 -370 -54 -702 -273 -910 -602
-240 -379 -265 -874 -65 -1282 114 -232 269 -404 494 -550 401 -259 925 -271
1352 -29 148 83 333 245 428 373 339 455 344 1069 14 1529 -213 297 -480 470
-848 552 -86 19 -311 34 -365 24z m-131 -528 c-131 -56 -197 -102 -296 -205
-209 -216 -281 -554 -187 -878 49 -168 153 -323 296 -438 88 -70 224 -144 317
-172 78 -23 38 -29 -57 -8 -439 97 -787 402 -883 772 -55 212 4 408 176 591
152 162 321 264 555 336 145 44 177 45 79 2z m775 -76 c156 -40 299 -131 385
-245 51 -67 113 -196 132 -275 16 -63 17 -253 2 -289 -7 -18 -8 -1 -5 61 18
354 -226 663 -583 739 -84 18 -256 15 -334 -5 -229 -61 -396 -224 -452 -444
-81 -318 85 -631 393 -739 88 -31 209 -35 307 -9 253 65 441 295 441 539 0 98
-44 221 -106 298 l-28 34 38 -35 c77 -72 122 -211 113 -349 -17 -272 -232
-492 -539 -555 -192 -40 -418 2 -571 104 -128 85 -235 219 -262 325 -56 228
18 455 207 630 135 125 315 207 511 235 92 13 261 4 351 -20z m-226 -359 c99
-51 152 -140 152 -256 0 -196 -217 -323 -397 -231 -176 90 -211 322 -67 444
24 20 63 45 86 55 59 24 167 18 226 -12z"/>
<path d="M3866 1567 c-79 -45 -102 -112 -67 -191 16 -38 29 -50 66 -67 25 -11
56 -19 68 -17 20 3 22 9 24 65 2 57 0 62 -20 65 -12 2 -21 6 -19 11 1 4 4 6 5
5 2 -2 11 3 20 10 11 9 15 32 16 78 0 63 0 64 -27 64 -15 0 -45 -10 -66 -23z"/>
<path d="M3990 1521 c0 -69 0 -69 30 -76 38 -8 39 -23 3 -27 -27 -3 -28 -5
-28 -60 0 -31 4 -60 8 -64 14 -15 93 19 129 56 32 32 38 44 38 81 0 57 -16 86
-68 126 -30 22 -54 33 -78 33 l-34 0 0 -69z"/>
</g>
</svg>
