<?xml version="1.0" standalone="no"?>
<!DOCTYPE svg PUBLIC "-//W3C//DTD SVG 20010904//EN"
 "http://www.w3.org/TR/2001/REC-SVG-20010904/DTD/svg10.dtd">
<svg version="1.0" xmlns="http://www.w3.org/2000/svg"
 width="9385.000000pt" height="3288.000000pt" viewBox="0 0 9385.000000 3288.000000"
 preserveAspectRatio="xMidYMid meet">

<g transform="translate(0.000000,3288.000000) scale(0.100000,-0.100000)"
fill="#000000" stroke="none">
<path d="M9054 24728 c-1172 -1173 -2167 -2176 -2211 -2228 -527 -626 -747
-1233 -803 -2212 -7 -129 -10 -2185 -10 -6540 0 -5600 2 -6365 15 -6453 53
-348 202 -638 449 -872 180 -171 392 -286 661 -360 l100 -28 4355 -3 4355 -2
-2730 2730 -2730 2730 4009 4009 4010 4010 -1742 1748 c-957 961 -2608 2615
-3669 3676 l-1928 1927 -2131 -2132z"/>
<path d="M20880 12880 l0 -4260 800 0 800 0 0 1484 0 1485 1313 4 c1387 4
1375 3 1697 52 578 87 1071 282 1477 586 119 90 348 315 430 424 259 345 421
726 492 1162 33 200 44 398 38 643 -6 239 -21 379 -63 579 -233 1131 -1108
1870 -2429 2050 -326 45 -296 44 -2467 48 l-2088 4 0 -4261z m4205 2797 c253
-41 401 -85 570 -167 299 -146 502 -375 599 -675 139 -430 73 -946 -162 -1261
-221 -297 -571 -472 -1060 -529 -106 -13 -329 -15 -1339 -15 l-1213 0 0 1335
0 1336 1253 -4 c1103 -3 1264 -5 1352 -20z"/>
<path d="M31348 14820 c-871 -47 -1660 -381 -2218 -940 -229 -229 -395 -460
-539 -750 -164 -331 -257 -647 -308 -1045 -25 -199 -25 -692 0 -890 68 -527
219 -951 481 -1350 438 -667 1174 -1142 2036 -1315 766 -154 1560 -71 2247
235 934 416 1553 1195 1742 2195 42 225 55 382 55 680 0 298 -13 455 -55 680
-209 1104 -944 1938 -2036 2310 -433 148 -932 215 -1405 190z m435 -1445 c290
-38 540 -131 768 -284 315 -211 530 -497 649 -858 58 -180 81 -316 87 -529 10
-337 -41 -596 -172 -869 -347 -725 -1197 -1096 -2025 -885 -604 154 -1064 611
-1214 1205 -40 162 -56 297 -56 485 0 389 93 715 288 1006 354 527 1016 815
1675 729z"/>
<path d="M38580 14820 c-1012 -55 -1922 -561 -2454 -1365 -348 -526 -526
-1140 -526 -1814 0 -1370 712 -2475 1900 -2951 396 -158 796 -232 1265 -232
264 -1 416 11 635 48 296 50 534 126 795 254 444 218 809 540 1144 1009 84
116 197 299 190 305 -16 14 -1253 686 -1259 684 -5 -2 -41 -46 -82 -99 -338
-446 -651 -659 -1087 -741 -98 -19 -151 -22 -336 -22 -200 0 -231 2 -346 27
-218 46 -392 118 -567 233 -106 70 -307 268 -379 374 -155 228 -258 509 -297
808 -21 159 -21 434 -1 589 89 679 481 1185 1072 1382 177 59 295 76 518 75
226 0 319 -15 506 -80 295 -102 567 -311 792 -609 51 -67 98 -120 106 -119 13
0 1285 725 1301 741 9 9 -94 196 -182 327 -426 642 -1117 1040 -1998 1151
-112 14 -487 37 -550 33 -14 0 -86 -4 -160 -8z"/>
<path d="M50530 14819 c-1191 -62 -2208 -734 -2683 -1775 -359 -787 -390
-1799 -80 -2619 275 -725 788 -1297 1474 -1640 500 -251 1017 -354 1625 -325
541 26 920 114 1309 305 479 235 843 573 1172 1090 l83 130 -606 303 c-333
167 -609 302 -613 300 -4 -2 -47 -50 -95 -108 -352 -424 -646 -611 -1081 -686
-140 -24 -455 -29 -600 -10 -646 86 -1117 471 -1319 1077 -36 108 -86 333 -86
388 l0 31 2320 0 2320 0 0 339 c0 446 -16 648 -76 932 -53 253 -128 468 -249
714 -150 305 -287 498 -525 735 -85 86 -201 190 -257 233 -398 302 -857 490
-1371 561 -103 15 -433 37 -492 34 -14 0 -90 -4 -170 -9z m327 -1169 c555 -49
976 -300 1216 -725 71 -126 167 -391 167 -461 l0 -24 -1595 0 -1595 0 26 73
c89 250 256 503 453 689 282 265 613 411 1021 451 76 8 200 6 307 -3z"/>
<path d="M63740 14820 c-598 -32 -1137 -206 -1620 -524 -686 -451 -1153 -1169
-1304 -2006 -44 -243 -51 -339 -51 -660 1 -326 10 -433 61 -691 180 -923 746
-1695 1559 -2125 505 -267 1065 -385 1686 -354 553 27 965 126 1356 326 368
188 694 472 975 850 69 93 228 336 228 348 0 7 -1196 606 -1209 606 -5 0 -53
-53 -106 -117 -339 -408 -638 -600 -1056 -675 -107 -20 -158 -23 -369 -23
-227 1 -254 3 -371 28 -69 14 -172 43 -230 62 -583 202 -961 691 -1055 1368
l-6 47 2321 0 2321 0 0 383 c0 401 -10 550 -50 777 -119 663 -438 1255 -895
1660 -501 444 -1102 682 -1824 720 -97 5 -187 9 -201 8 -14 -1 -86 -4 -160 -8z
m330 -1171 c409 -37 730 -178 980 -428 152 -152 256 -319 329 -524 26 -76 71
-233 71 -251 0 -3 -718 -6 -1595 -6 -1095 0 -1595 3 -1595 10 0 6 15 50 34 98
102 264 282 523 486 697 365 312 802 449 1290 404z"/>
<path d="M76225 14820 c-740 -40 -1409 -282 -1965 -710 -142 -109 -418 -392
-525 -537 -408 -556 -598 -1169 -598 -1933 0 -581 106 -1057 336 -1510 143
-282 295 -489 531 -726 294 -293 610 -504 1006 -672 637 -269 1425 -348 2130
-211 568 109 1076 341 1500 682 119 96 357 341 454 467 327 427 524 915 603
1500 26 191 26 757 0 940 -87 621 -285 1100 -636 1540 -624 784 -1708 1231
-2836 1170z m400 -1440 c304 -35 607 -149 845 -318 52 -37 145 -116 205 -177
219 -219 351 -453 430 -760 45 -177 59 -291 59 -485 0 -194 -14 -308 -59 -485
-38 -147 -86 -273 -150 -391 -370 -679 -1198 -1018 -1990 -814 -773 199 -1275
865 -1275 1690 0 857 539 1536 1358 1710 183 39 400 50 577 30z"/>
<path d="M42010 13990 l0 -670 900 0 900 0 0 -2350 0 -2350 765 0 765 0 0
2350 0 2350 900 0 900 0 0 670 0 670 -2565 0 -2565 0 0 -670z"/>
<path d="M55325 14608 c-3 -29 -62 -809 -130 -1733 -132 -1779 -136 -1818
-166 -2018 -62 -416 -166 -630 -348 -716 -54 -25 -62 -26 -231 -25 -141 0
-195 5 -277 22 -56 12 -109 25 -117 28 -14 6 -16 -69 -16 -775 l0 -780 39 -11
c146 -39 497 -59 716 -41 424 35 738 162 986 399 384 365 605 988 694 1957 13
149 165 2301 165 2348 0 16 48 17 865 17 l865 0 0 -2320 0 -2320 765 0 765 0
0 3010 0 3010 -2284 0 -2285 0 -6 -52z"/>
<path d="M67810 11640 l0 -3020 765 0 765 0 2 1243 3 1244 1096 -1241 1095
-1241 922 -3 c507 -1 922 1 922 5 0 5 -637 732 -1415 1617 -779 885 -1415
1612 -1413 1617 2 4 622 632 1378 1395 756 763 1377 1391 1378 1395 2 5 -403
9 -900 9 l-904 0 -1079 -1092 -1080 -1092 -3 1092 -2 1092 -765 0 -765 0 0
-3020z"/>
<path d="M80490 11650 l0 -3010 730 0 730 0 2 1894 3 1894 801 -1892 801
-1891 599 -3 599 -2 799 1887 c439 1039 803 1892 807 1897 5 6 9 -821 9 -1887
l0 -1897 725 0 725 0 0 3010 0 3010 -1001 -2 -1001 -3 -828 -2103 c-456 -1157
-830 -2105 -832 -2107 -2 -2 -367 922 -812 2053 -445 1131 -820 2081 -832
2110 l-23 52 -1000 0 -1001 0 0 -3010z"/>
</g>
</svg>
