<?xml version="1.0" encoding="utf-8"?>
<!-- Generator: Adobe Illustrator 28.1.0, SVG Export Plug-In . SVG Version: 6.00 Build 0)  -->
<svg version="1.1" id="Layer_1" xmlns="http://www.w3.org/2000/svg" xmlns:xlink="http://www.w3.org/1999/xlink" x="0px" y="0px"
	 viewBox="0 0 1471.8 406.6" style="enable-background:new 0 0 1471.8 406.6;" xml:space="preserve">
<style type="text/css">
	.st0{fill:#FFDD2D;}
	.st1{fill:#FFFFFF;}
	.st2{fill-rule:evenodd;clip-rule:evenodd;fill:#333333;}
	.st3{fill:#333333;}
	.st4{fill-rule:evenodd;clip-rule:evenodd;fill:#FFFFFF;}
</style>
<g>
	<path class="st0" d="M1430.1,406.6H41.7c-23,0-41.7-18.7-41.7-41.7L0,41.7C0,18.7,18.7,0,41.7,0h1388.4c23,0,41.7,18.7,41.7,41.7
		v323.2C1471.8,387.9,1453.1,406.6,1430.1,406.6z"/>
	<g>
		<path class="st1" d="M125.1,107.7h208.5v104.9c0,26.9-14.3,51.7-37.6,65.2l-66.6,38.5l-66.6-38.5c-23.3-13.4-37.6-38.3-37.6-65.2
			V107.7z"/>
		<path class="st2" d="M182.3,162.9v32.6c4.5-5,12.6-8.4,21.8-8.4h10.1V225c0,10.1-2.7,18.9-6.8,23.8h43.8
			c-4.1-4.9-6.8-13.7-6.8-23.8v-37.9h10.1c9.3,0,17.4,3.4,21.8,8.4v-32.6H182.3z"/>
	</g>
	<g>
		<path class="st3" d="M1276.6,158v8.7c33,0.7,52.7,14.6,52.7,39.1c0,24.5-19.7,37.3-52.7,38.1v8.7h-26.1v-8.7
			c-32.8-0.7-52.5-13.5-52.5-38.1c0-24.5,19.7-38.4,52.5-39.1V158H1276.6z M1250.5,225.5v-40.2c-18,0.7-26,9-26,20.6
			C1224.5,217.4,1232.5,224.8,1250.5,225.5z M1276.6,185.3v40.2c18.2-0.7,26-8.1,26-19.7C1302.6,194.3,1294.9,186,1276.6,185.3z"/>
		<path class="st3" d="M1137,158v8.7c33,0.7,52.7,14.6,52.7,39.1c0,24.5-19.7,37.3-52.7,38.1v8.7h-26.1v-8.7
			c-32.8-0.7-52.5-13.5-52.5-38.1c0-24.5,19.7-38.4,52.5-39.1V158H1137z M1110.8,225.5v-40.2c-18,0.7-26,9-26,20.6
			C1084.9,217.4,1092.8,224.8,1110.8,225.5z M1137,185.3v40.2c18.2-0.7,26-8.1,26-19.7C1163,194.3,1155.2,186,1137,185.3z"/>
		<path class="st3" d="M993.8,160.6c35,0,56.1,19.8,56.1,45.4c0,25.6-21.1,45.4-56.1,45.4c-35.2,0-56.3-19.8-56.3-45.4
			C937.6,180.4,958.7,160.6,993.8,160.6z M993.8,230.5c17.3,0,28.7-10.5,28.7-24.5c0-14.1-11.4-24.3-28.7-24.3
			c-17.5,0-28.7,10.3-28.7,24.3C965.1,220.1,976.3,230.5,993.8,230.5z"/>
		<path class="st3" d="M874,216.3h-7.2v32.5h-26.1v-85.8h26.1v32.3h7.2l31.6-32.3h32.8L896.6,204l43.5,44.7h-34.8L874,216.3z"/>
		<path class="st3" d="M788.4,248.8h-53v-85.8h26.2V186h26.9c6.5,0,13.3,0.2,19.1,2.3c12.1,4.5,19.7,14.4,19.7,28.7
			c0,15-8.8,26-22.4,29.8C799.7,248.2,794.3,248.8,788.4,248.8z M783.8,206.2h-22.4V228h22.4c4.5,0,7.4,0,10.3-1.3
			c4.1-1.8,6.7-5.6,6.7-10.1c0-4.3-2.5-7.9-6.9-9.4C790.9,206.2,787.4,206.2,783.8,206.2z"/>
		<path class="st3" d="M689.4,216.8h-42v31.9h-26.1v-85.8h26.1v31.4h42v-31.4h26.1v85.8h-26.1V216.8z"/>
		<path class="st3" d="M533.2,212.9l45.1-50h23.1v85.8h-26.1v-50l-45.1,50h-23.1v-85.8h26.1V212.9z"/>
		<path class="st3" d="M459.1,248.8h-27.1v-62.9h-37.2v-22.9h101.4v22.9h-37.1V248.8z"/>
	</g>
</g>
</svg>
